<?xml version="1.0" encoding="UTF-8"?>
<svg version="1.1" xmlns="http://www.w3.org/2000/svg" width="500" height="500">
<path d="M0 0 C1.8125 1.1875 1.8125 1.1875 3 3 C3.1875 6.1875 3.1875 6.1875 3 9 C3.56976563 9.25910156 4.13953125 9.51820313 4.7265625 9.78515625 C7.21145726 11.1129952 9.19717171 12.64989692 11.375 14.4375 C15.72543677 17.96979493 20.09837431 21.46936356 24.5 24.9375 C25.11149902 25.42210693 25.72299805 25.90671387 26.35302734 26.40600586 C29.52290909 28.9366215 29.52290909 28.9366215 33 31 C33 31.66 33 32.32 33 33 C34.65 33.66 36.3 34.32 38 35 C38 35.66 38 36.32 38 37 C38.66 37.185625 39.32 37.37125 40 37.5625 C43.53119163 39.25452932 45.93444081 41.44888036 48.8203125 44.0625 C53.44600818 48.17422949 58.33708325 51.99282348 63.5625 55.3125 C64.366875 55.869375 65.17125 56.42625 66 57 C66 57.66 66 58.32 66 59 C66.58910156 59.2784375 67.17820312 59.556875 67.78515625 59.84375 C69.85851404 60.92613784 71.58465414 62.08044772 73.4375 63.5 C74.118125 64.01949219 74.79875 64.53898437 75.5 65.07421875 C76.325 65.70972656 77.15 66.34523438 78 67 C79.12482891 67.86090068 80.24984185 68.72156092 81.375 69.58203125 C82.56270726 70.49191702 83.75020685 71.40207393 84.9375 72.3125 C85.51749756 72.75722656 86.09749512 73.20195312 86.69506836 73.66015625 C90.88167307 76.88167307 90.88167307 76.88167307 92 78 C92.07319621 80.69654854 92.09242537 83.36691458 92.0625 86.0625 C92.05798828 86.82111328 92.05347656 87.57972656 92.04882812 88.36132812 C92.0370068 90.24091871 92.01907078 92.12046899 92 94 C92.66 94 93.32 94 94 94 C94 94.66 94 95.32 94 96 C94.78697266 96.32291016 94.78697266 96.32291016 95.58984375 96.65234375 C98.945569 98.52872173 101.68999327 101.03569634 104.5625 103.5625 C105.81456959 104.64514979 107.0671801 105.72717431 108.3203125 106.80859375 C110.08731568 108.33923157 111.85288966 109.87128959 113.61230469 111.41064453 C120.96807227 117.84706265 120.96807227 117.84706265 130 121 C132 123 132 123 132.375 126.9375 C132.29081697 129.8365531 132.24906476 130.69345876 130.375 133 C127.26291151 134.31035305 125.34451564 134.55741927 122 134 C118.94338095 131.26513033 118.06025422 129.79836847 117.75 125.6875 C117.8325 124.800625 117.915 123.91375 118 123 C117.34 123 116.68 123 116 123 C116 122.34 116 121.68 116 121 C115.45859375 120.7628125 114.9171875 120.525625 114.359375 120.28125 C111.36749863 118.65652243 108.88840601 116.6498123 106.25 114.5 C105.26515625 113.7059375 104.2803125 112.911875 103.265625 112.09375 C102.14414062 111.05734375 102.14414062 111.05734375 101 110 C101 109.34 101 108.68 101 108 C100.484375 107.773125 99.96875 107.54625 99.4375 107.3125 C96.10452995 105.51782382 92.85296329 103.50034985 90 101 C90 100.34 90 99.68 90 99 C89.34 99 88.68 99 88 99 C87.24976563 97.20175781 87.24976563 97.20175781 86.484375 95.3671875 C84.04831583 90.49292096 80.72408257 88.0682528 76.25 85.125 C73.79036236 83.46099376 71.39010171 81.76582142 69 80 C69 79.34 69 78.68 69 78 C67.35 77.34 65.7 76.68 64 76 C64 75.34 64 74.68 64 74 C63.41089844 73.7215625 62.82179688 73.443125 62.21484375 73.15625 C60.14148596 72.07386216 58.41534586 70.91955228 56.5625 69.5 C55.86382812 68.96632813 55.16515625 68.43265625 54.4453125 67.8828125 C53.23488281 66.95082031 53.23488281 66.95082031 52 66 C51.04867187 65.27554688 50.09734375 64.55109375 49.1171875 63.8046875 C40.63791505 57.33457057 32.31340649 50.68180334 24 44 C23.67 52.91 23.34 61.82 23 71 C22.01 71.495 22.01 71.495 21 72 C20.34 71.67 19.68 71.34 19 71 C19 70.34 19 69.68 19 69 C18.29875 68.773125 17.5975 68.54625 16.875 68.3125 C13.35708915 66.70649722 10.3743775 65.08051207 8 62 C7.19562438 58.83298811 7.32595498 55.78480903 7.44140625 52.53515625 C7.44735138 50.66471381 7.45320803 48.79427109 7.45898438 46.92382812 C7.50492586 43.98971498 7.5626375 41.05610664 7.62573242 38.12231445 C7.67653086 35.28022519 7.68536326 32.44013923 7.69140625 29.59765625 C7.74102257 28.28958763 7.74102257 28.28958763 7.79164124 26.95509338 C7.79109303 23.36549213 7.75328611 20.97050952 5.50485229 18.07369995 C1.49369552 14.4589613 -0.56435128 13.88183372 -6 14 C-9.04569423 11.68262395 -10.73181298 10.22174087 -11.5625 6.4375 C-10.82966697 3.26189019 -9.48597913 2.04727693 -7 0 C-4.26634878 -1.36682561 -2.89333621 -0.84683011 0 0 Z " fill="#0963DE" transform="translate(186,148)"/>
<path d="M0 0 C0 28.38 0 56.76 0 86 C-5.56569447 83.77372221 -9.99958562 81.52890548 -14 77 C-15.23542588 73.39532815 -15.19352018 70.03757564 -15.09765625 66.25390625 C-15.10711777 65.24279282 -15.11657928 64.23167938 -15.12632751 63.18992615 C-15.14682873 59.97927389 -15.10558731 56.77286557 -15.0625 53.5625 C-15.06557619 51.37824563 -15.07269426 49.19399298 -15.08398438 47.00976562 C-15.10278288 41.67230789 -15.07097696 36.3369787 -15 31 C-15.66386719 31.66128906 -16.32773437 32.32257813 -17.01171875 33.00390625 C-18.33623047 34.27041016 -18.33623047 34.27041016 -19.6875 35.5625 C-20.55761719 36.40941406 -21.42773438 37.25632813 -22.32421875 38.12890625 C-25 40 -25 40 -27.69213867 39.86547852 C-30.29709296 38.88858621 -32.13898205 37.6689465 -34.3125 35.9375 C-35.00988281 35.38964844 -35.70726562 34.84179688 -36.42578125 34.27734375 C-36.94527344 33.85582031 -37.46476562 33.43429688 -38 33 C-36.48052501 29.63251488 -35.47899158 28.39159663 -32 27 C-32 26.34 -32 25.68 -32 25 C-27.52941176 21 -27.52941176 21 -25 21 C-25 20.34 -25 19.68 -25 19 C-23.30725716 17.43567213 -21.54430148 15.94671428 -19.75 14.5 C-18.77546875 13.7059375 -17.8009375 12.911875 -16.796875 12.09375 C-14.55105238 10.41251966 -12.5534197 9.11864101 -10 8 C-10 7.34 -10 6.68 -10 6 C-8.3203125 4.4921875 -8.3203125 4.4921875 -6.125 2.875 C-5.40570313 2.33617187 -4.68640625 1.79734375 -3.9453125 1.2421875 C-2 0 -2 0 0 0 Z " fill="#696D74" transform="translate(308,167)"/>
<path d="M0 0 C5.74918707 0.99170127 10.25078825 4.68602496 14 9 C15.09276935 12.73403698 15.24182555 16.13079115 15 20 C15.69867188 19.3503125 16.39734375 18.700625 17.1171875 18.03125 C18.02726562 17.1959375 18.93734375 16.360625 19.875 15.5 C20.77992188 14.6646875 21.68484375 13.829375 22.6171875 12.96875 C25 11 25 11 27 11 C27 10.34 27 9.68 27 9 C29.10409635 6.89590365 30.30386489 6.01881446 33.3125 5.9375 C37.22551953 7.48450772 39.96385213 10.13884625 43 13 C42.43224906 16.45879849 41.43799115 17.85450727 38.75 20.0625 C38.03972656 20.65417969 37.32945312 21.24585938 36.59765625 21.85546875 C35.74042969 22.56316406 34.88320312 23.27085937 34 24 C32.89257806 24.9521601 31.78723931 25.90674652 30.68359375 26.86328125 C29.51842611 27.86741608 28.35306133 28.87132219 27.1875 29.875 C26.62450195 30.36363525 26.06150391 30.85227051 25.48144531 31.35571289 C22.99346399 33.47722129 21.13388977 34.95537008 18 36 C18 36.66 18 37.32 18 38 C17.34 38 16.68 38 16 38 C16 38.66 16 39.32 16 40 C12.53846154 43 12.53846154 43 10 43 C10 43.66 10 44.32 10 45 C8.06640625 46.7265625 8.06640625 46.7265625 5.5625 48.625 C4.73878906 49.25664062 3.91507813 49.88828125 3.06640625 50.5390625 C1 52 1 52 0 52 C-0.80228454 41.98058086 -1.15993826 32.03843846 -1.13037109 21.98901367 C-1.12490946 19.77581228 -1.13041127 17.56280547 -1.13671875 15.34960938 C-1.13605946 13.92708289 -1.13478139 12.50455653 -1.1328125 11.08203125 C-1.13168457 9.81593018 -1.13055664 8.5498291 -1.12939453 7.24536133 C-1.0245088 4.61470839 -0.78667595 2.4916613 0 0 Z " fill="#656970" transform="translate(195,220)"/>
<path d="M0 0 C1.98 0.99 1.98 0.99 4 2 C4.75 4.625 4.75 4.625 5 7 C5.66 7 6.32 7 7 7 C6.67 6.34 6.34 5.68 6 5 C7.98 5.66 9.96 6.32 12 7 C12 7.99 12 8.98 12 10 C12.99 10.66 13.98 11.32 15 12 C14.67 12.66 14.34 13.32 14 14 C15.11375 14.12375 16.2275 14.2475 17.375 14.375 C21 15 21 15 23 17 C24.31647119 17.69937532 25.65022151 18.36729133 27 19 C27.66 19.33 28.32 19.66 29 20 C29 20.99 29 21.98 29 23 C29.804375 23.12375 30.60875 23.2475 31.4375 23.375 C32.7059375 23.684375 32.7059375 23.684375 34 24 C34.495 24.99 34.495 24.99 35 26 C37.01669827 27.13350534 37.01669827 27.13350534 39 28 C39 31 39 31 36.75 33.625 C34.27118796 35.76579221 33.16431511 36.64840943 30 37 C29.34 36.01 28.68 35.02 28 34 C26.948125 33.731875 25.89625 33.46375 24.8125 33.1875 C21 32 21 32 14 26 C13.67 34.91 13.34 43.82 13 53 C12.01 53.495 12.01 53.495 11 54 C10.34 53.67 9.68 53.34 9 53 C9 52.34 9 51.68 9 51 C8.01 50.67 7.02 50.34 6 50 C4.3125 46.4375 4.3125 46.4375 3 43 C2.01 43 1.02 43 0 43 C0 28.81 0 14.62 0 0 Z " fill="#096FF4" transform="translate(196,166)"/>
<path d="M0 0 C1.8125 1.1875 1.8125 1.1875 3 3 C3.1875 6.1875 3.1875 6.1875 3 9 C3.56976563 9.25910156 4.13953125 9.51820313 4.7265625 9.78515625 C7.21145726 11.1129952 9.19717171 12.64989692 11.375 14.4375 C15.72543677 17.96979493 20.09837431 21.46936356 24.5 24.9375 C25.11149902 25.42210693 25.72299805 25.90671387 26.35302734 26.40600586 C29.52290909 28.9366215 29.52290909 28.9366215 33 31 C33 31.66 33 32.32 33 33 C34.65 33.66 36.3 34.32 38 35 C38 35.66 38 36.32 38 37 C38.66 37.185625 39.32 37.37125 40 37.5625 C45.85635204 40.36866869 50.53400674 45.34792369 55 50 C54.01 50.495 54.01 50.495 53 51 C53 50.34 53 49.68 53 49 C51.68 49 50.36 49 49 49 C48.67 48.01 48.34 47.02 48 46 C45.99983534 44.79117904 45.99983534 44.79117904 44 44 C44 43.34 44 42.68 44 42 C42.35 41.67 40.7 41.34 39 41 C39 40.01 39 39.02 39 38 C37.906875 37.731875 36.81375 37.46375 35.6875 37.1875 C32.12955621 36.04172149 31.40111277 35.51025426 29 33 C26.39388923 32.27802838 26.39388923 32.27802838 24 32 C24 31.34 24 30.68 24 30 C23.01 29.34 22.02 28.68 21 28 C20.67 27.34 20.34 26.68 20 26 C19.34 25.67 18.68 25.34 18 25 C17.34 25.66 16.68 26.32 16 27 C13.05454944 24.56680171 12.67713283 22.67586393 12 19 C11.34 18.67 10.68 18.34 10 18 C10 32.19 10 46.38 10 61 C11.98 60.505 11.98 60.505 14 60 C14.99 63.465 14.99 63.465 16 67 C14.64791086 66.37224433 13.31836295 65.69580267 12 65 C11.30108643 64.67169189 10.60217285 64.34338379 9.88208008 64.00512695 C6.80252229 60.72423344 7.53533344 57.05565928 7.63671875 52.73046875 C7.63685321 50.85351552 7.63617666 48.97656208 7.63476562 47.09960938 C7.65562708 44.14341842 7.68749098 41.18805432 7.7355957 38.23217773 C7.77448963 35.37669552 7.7704566 32.52364673 7.76171875 29.66796875 C7.78852219 28.7896489 7.81532562 27.91132904 7.84294128 27.00639343 C7.81439013 23.4024602 7.75792105 20.97583164 5.50039673 18.06924438 C1.49098913 14.4560951 -0.56672098 13.88188524 -6 14 C-9.04569423 11.68262395 -10.73181298 10.22174087 -11.5625 6.4375 C-10.82966697 3.26189019 -9.48597913 2.04727693 -7 0 C-4.26634878 -1.36682561 -2.89333621 -0.84683011 0 0 Z " fill="#1064D3" transform="translate(186,148)"/>
<path d="M0 0 C0.99 0.66 1.98 1.32 3 2 C3.22107787 4.7885289 3.28107535 7.34653181 3.1875 10.125 C3.17396484 10.87910156 3.16042969 11.63320312 3.14648438 12.41015625 C3.11109985 14.27374127 3.05729167 16.13695978 3 18 C3.66 18 4.32 18 5 18 C5 18.66 5 19.32 5 20 C5.52464844 20.21527344 6.04929687 20.43054688 6.58984375 20.65234375 C9.945569 22.52872173 12.68999327 25.03569634 15.5625 27.5625 C16.81456959 28.64514979 18.0671801 29.72717431 19.3203125 30.80859375 C21.08731568 32.33923157 22.85288966 33.87128959 24.61230469 35.41064453 C31.96807227 41.84706265 31.96807227 41.84706265 41 45 C43 47 43 47 43.375 50.9375 C43.29081697 53.8365531 43.24906476 54.69345876 41.375 57 C38.26291151 58.31035305 36.34451564 58.55741927 33 58 C29.94338095 55.26513033 29.06025422 53.79836847 28.75 49.6875 C28.8325 48.800625 28.915 47.91375 29 47 C28.34 47 27.68 47 27 47 C27 46.34 27 45.68 27 45 C26.45859375 44.7628125 25.9171875 44.525625 25.359375 44.28125 C22.36749863 42.65652243 19.88840601 40.6498123 17.25 38.5 C16.26515625 37.7059375 15.2803125 36.911875 14.265625 36.09375 C13.51796875 35.4028125 12.7703125 34.711875 12 34 C12 33.34 12 32.68 12 32 C11.484375 31.773125 10.96875 31.54625 10.4375 31.3125 C7.10452995 29.51782382 3.85296329 27.50034985 1 25 C1 24.34 1 23.68 1 23 C0.34 23 -0.32 23 -1 23 C-1.99 20.36 -2.98 17.72 -4 15 C-3.01 15 -2.02 15 -1 15 C0.09506492 11.71480525 0.09960608 9.26336585 0.0625 5.8125 C0.04896484 4.18248047 0.04896484 4.18248047 0.03515625 2.51953125 C0.02355469 1.68808594 0.01195312 0.85664063 0 0 Z " fill="#0C5ACD" transform="translate(275,224)"/>
<path d="M0 0 C4.48256298 0.5789092 6.29299246 2.93133366 9.046875 6.23828125 C9.52769531 6.78548828 10.00851563 7.33269531 10.50390625 7.89648438 C12.61291058 10.31978322 14.51348028 12.75068917 16.296875 15.42578125 C16.626875 10.80578125 16.956875 6.18578125 17.296875 1.42578125 C18.946875 1.09578125 20.596875 0.76578125 22.296875 0.42578125 C22.296875 8.34578125 22.296875 16.26578125 22.296875 24.42578125 C14.396875 23.29720982 14.396875 23.29720982 11.359375 19.48828125 C10.77285156 18.77800781 10.18632813 18.06773437 9.58203125 17.3359375 C8.296875 15.42578125 8.296875 15.42578125 8.296875 13.42578125 C7.636875 13.42578125 6.976875 13.42578125 6.296875 13.42578125 C4.976875 11.77578125 3.656875 10.12578125 2.296875 8.42578125 C2.296875 13.37578125 2.296875 18.32578125 2.296875 23.42578125 C0.646875 23.75578125 -1.003125 24.08578125 -2.703125 24.42578125 C-4.35706617 22.77184008 -3.83312183 20.82262712 -3.8359375 18.55078125 C-3.83722656 17.5659375 -3.83851562 16.58109375 -3.83984375 15.56640625 C-3.83597656 14.53 -3.83210938 13.49359375 -3.828125 12.42578125 C-3.83392578 10.87117188 -3.83392578 10.87117188 -3.83984375 9.28515625 C-3.83855469 8.3003125 -3.83726563 7.31546875 -3.8359375 6.30078125 C-3.83480957 5.39070313 -3.83368164 4.480625 -3.83251953 3.54296875 C-3.63743926 0.35101388 -3.19985042 0.50402268 0 0 Z " fill="#525257" transform="translate(117.703125,309.57421875)"/>
<path d="M0 0 C1.13598633 0.00483398 1.13598633 0.00483398 2.29492188 0.00976562 C3.47344727 0.02233398 3.47344727 0.02233398 4.67578125 0.03515625 C5.47306641 0.03966797 6.27035156 0.04417969 7.09179688 0.04882812 C9.05732382 0.06059775 11.0228121 0.07853277 12.98828125 0.09765625 C12.98828125 1.74765625 12.98828125 3.39765625 12.98828125 5.09765625 C5.06828125 5.59265625 5.06828125 5.59265625 -3.01171875 6.09765625 C-3.01171875 7.08765625 -3.01171875 8.07765625 -3.01171875 9.09765625 C-2.191875 9.07445312 -1.37203125 9.05125 -0.52734375 9.02734375 C1.08914063 9.00027344 1.08914063 9.00027344 2.73828125 8.97265625 C4.33929688 8.93785156 4.33929688 8.93785156 5.97265625 8.90234375 C8.93850953 9.09443269 10.54032789 9.46187433 12.98828125 11.09765625 C14.24854923 13.6181922 13.9070257 14.95186605 13.55078125 17.72265625 C13.44894531 18.53992188 13.34710938 19.3571875 13.2421875 20.19921875 C13.15839844 20.82570313 13.07460938 21.4521875 12.98828125 22.09765625 C6.2234248 23.70970715 -0.06130789 24.3638422 -7.01171875 24.09765625 C-7.34171875 22.44765625 -7.67171875 20.79765625 -8.01171875 19.09765625 C-2.68959727 18.30499986 2.63792535 17.66787559 7.98828125 17.09765625 C7.98828125 16.10765625 7.98828125 15.11765625 7.98828125 14.09765625 C7.00988281 14.25814453 7.00988281 14.25814453 6.01171875 14.421875 C1.75425372 15.00586357 -1.39370806 15.27113294 -5.57421875 14.09765625 C-8.01171875 12.09765625 -8.01171875 12.09765625 -9.01171875 8.66015625 C-9.01171875 3.69765625 -9.01171875 3.69765625 -7.01171875 1.09765625 C-4.30455633 0.19526878 -2.77395107 -0.02085677 0 0 Z " fill="#114799" transform="translate(372.01171875,309.90234375)"/>
<path d="M0 0 C0.74958984 0.00451172 1.49917969 0.00902344 2.27148438 0.01367188 C4.11852383 0.02543646 5.96552213 0.04337135 7.8125 0.0625 C8.375 2 8.375 2 8.8125 4.0625 C6.81633446 6.05866554 2.99548037 5.47233427 0.25 5.625 C-0.81637695 5.68977539 -0.81637695 5.68977539 -1.90429688 5.75585938 C-3.66511912 5.86221777 -5.4262832 5.96288846 -7.1875 6.0625 C-7.1875 6.7225 -7.1875 7.3825 -7.1875 8.0625 C-6.37925781 8.08828125 -5.57101562 8.1140625 -4.73828125 8.140625 C3.92232832 8.60029547 3.92232832 8.60029547 8.0625 10.75 C9.8125 13.0625 9.8125 13.0625 10.3125 16.0625 C9.73170595 19.54726427 9.44367217 20.70385978 6.8125 23.0625 C3.5955246 23.71658992 0.40016872 23.75979063 -2.875 23.8125 C-4.21401367 23.85697266 -4.21401367 23.85697266 -5.58007812 23.90234375 C-7.78264277 23.97301427 -9.98415131 24.02571939 -12.1875 24.0625 C-12.5175 22.4125 -12.8475 20.7625 -13.1875 19.0625 C-7.9075 18.7325 -2.6275 18.4025 2.8125 18.0625 C3.1425 16.7425 3.4725 15.4225 3.8125 14.0625 C3.00425781 14.09730469 2.19601562 14.13210938 1.36328125 14.16796875 C0.29464844 14.19503906 -0.77398437 14.22210938 -1.875 14.25 C-3.45861328 14.30220703 -3.45861328 14.30220703 -5.07421875 14.35546875 C-8.61836268 14.02195458 -10.4445822 13.32137349 -13.1875 11.0625 C-13.85663403 8.26284321 -13.42618841 5.97449859 -13.1875 3.0625 C-12.5275 3.0625 -11.8675 3.0625 -11.1875 3.0625 C-11.1875 2.4025 -11.1875 1.7425 -11.1875 1.0625 C-7.42449626 -0.19183458 -3.91539091 -0.04445422 0 0 Z " fill="#1147A0" transform="translate(294.1875,309.9375)"/>
<path d="M0 0 C2.89640118 -0.08120751 5.79050912 -0.14059421 8.6875 -0.1875 C9.50412109 -0.21263672 10.32074219 -0.23777344 11.16210938 -0.26367188 C15.85065263 -0.32061774 19.34511352 -0.31132715 23 3 C23.62890625 5.15625 23.62890625 5.15625 23.5625 7.5 C23.56443359 8.66015625 23.56443359 8.66015625 23.56640625 9.84375 C23 12 23 12 21.41796875 13.76953125 C18.08996505 15.46310341 15.46147704 15.29059658 11.75 15.1875 C10.48671875 15.16042969 9.2234375 15.13335937 7.921875 15.10546875 C6.95765625 15.07066406 5.9934375 15.03585937 5 15 C5 17.97 5 20.94 5 24 C3.35 23.67 1.7 23.34 0 23 C-0.02686553 21.02090602 -0.04633375 19.04171029 -0.0625 17.0625 C-0.07410156 15.96035156 -0.08570313 14.85820312 -0.09765625 13.72265625 C0 11 0 11 1 10 C3.86267567 9.92674832 6.700719 9.90761795 9.5625 9.9375 C10.36880859 9.94201172 11.17511719 9.94652344 12.00585938 9.95117188 C14.00393756 9.96299482 16.00197783 9.98093086 18 10 C17.67 8.68 17.34 7.36 17 6 C11.72 5.67 6.44 5.34 1 5 C0.67 3.35 0.34 1.7 0 0 Z " fill="#57595E" transform="translate(240,310)"/>
<path d="M0 0 C1.1446875 0.12375 1.1446875 0.12375 2.3125 0.25 C3.47630429 2.57760857 4.63963906 4.9054365 5.80078125 7.234375 C6.85244676 9.33227106 7.91301604 11.4257176 8.98046875 13.515625 C9.52316406 14.58296875 10.06585938 15.6503125 10.625 16.75 C11.13675781 17.7503125 11.64851563 18.750625 12.17578125 19.78125 C13.3125 22.25 13.3125 22.25 13.3125 24.25 C11.125 24.25 11.125 24.25 8.3125 23.25 C6.2891096 20.7782782 4.80942883 18.06381467 3.3125 15.25 C2.714375 14.13625 2.11625 13.0225 1.5 11.875 C0.3125 9.25 0.3125 9.25 0.3125 7.25 C-0.3475 7.25 -1.0075 7.25 -1.6875 7.25 C-1.84605469 7.806875 -2.00460938 8.36375 -2.16796875 8.9375 C-3.91549331 14.65316044 -6.29958571 19.33551563 -9.6875 24.25 C-11.3375 23.92 -12.9875 23.59 -14.6875 23.25 C-13.25751245 20.16312815 -11.81720671 17.0811796 -10.375 14 C-9.97087891 13.12730469 -9.56675781 12.25460937 -9.15039062 11.35546875 C-8.75400391 10.51113281 -8.35761719 9.66679687 -7.94921875 8.796875 C-7.40720825 7.63430176 -7.40720825 7.63430176 -6.85424805 6.44824219 C-3.60999006 0.33581303 -3.60999006 0.33581303 0 0 Z " fill="#5D5F65" transform="translate(208.6875,309.75)"/>
<path d="M0 0 C1.65 0 3.3 0 5 0 C5.33 0.99 5.66 1.98 6 3 C6.66 3 7.32 3 8 3 C9.38938077 4.96147874 10.7260411 6.96166576 12 9 C12.45375 8.34 12.9075 7.68 13.375 7 C13.91125 6.34 14.4475 5.68 15 5 C15.66 5 16.32 5 17 5 C17.309375 4.360625 17.61875 3.72125 17.9375 3.0625 C19 1 19 1 20 0 C21.66617115 -0.04063832 23.33388095 -0.042721 25 0 C25 3.56229451 24.23890991 4.41109679 22.125 7.1875 C21.59132813 7.90292969 21.05765625 8.61835938 20.5078125 9.35546875 C20.01023437 9.89816406 19.51265625 10.44085938 19 11 C18.34 11 17.68 11 17 11 C16.34 15.29 15.68 19.58 15 24 C13.35 24 11.7 24 10 24 C8.86622408 21.73244816 8.9688581 20.5086483 8.9375 18 C8.42855431 12.38342077 5.39152556 9.23490528 1.71484375 5.1640625 C0 3 0 3 0 0 Z " fill="#0E4193" transform="translate(321,310)"/>
<path d="M0 0 C2.26171875 -0.28125 2.26171875 -0.28125 5 0 C7.01953125 1.96875 7.01953125 1.96875 8.8125 4.5 C9.41707031 5.3353125 10.02164063 6.170625 10.64453125 7.03125 C11.09183594 7.6809375 11.53914062 8.330625 12 9 C13.11375 7.88625 13.11375 7.88625 14.25 6.75 C15.1575 5.8425 16.065 4.935 17 4 C17.680625 3.236875 18.36125 2.47375 19.0625 1.6875 C21 0 21 0 25 0 C24.414037 3.92778324 22.45902226 6.14445995 20 9.1875 C16.13358395 14.3243099 15 17.61883376 15 24 C13.35 23.67 11.7 23.34 10 23 C9.96261719 22.39671875 9.92523438 21.7934375 9.88671875 21.171875 C9.50675198 16.5526711 9.24820627 13.53065899 6 10 C6 9.34 6 8.68 6 8 C5.34 8 4.68 8 4 8 C0 2.58823529 0 2.58823529 0 0 Z " fill="#5A5F64" transform="translate(158,310)"/>
<path d="M0 0 C1.8125 1.1875 1.8125 1.1875 3 3 C3.1875 6.1875 3.1875 6.1875 3 9 C3.5775 9.2475 4.155 9.495 4.75 9.75 C7.3002997 11.16683317 9.01785701 12.87627537 11 15 C9.68 15 8.36 15 7 15 C6.67 16.32 6.34 17.64 6 19 C5.13375 18.175 4.2675 17.35 3.375 16.5 C0.87446266 14.38189778 0.36223779 14 -3.0625 14 C-6 14 -6 14 -8.875 11.8125 C-11 9 -11 9 -11.5625 6.4375 C-10.82966697 3.26189019 -9.48597913 2.04727693 -7 0 C-4.26634878 -1.36682561 -2.89333621 -0.84683011 0 0 Z " fill="#155EB6" transform="translate(186,148)"/>
<path d="M0 0 C0.66 0.33 1.32 0.66 2 1 C2 1.66 2 2.32 2 3 C3.4540625 3.185625 3.4540625 3.185625 4.9375 3.375 C6.4534375 3.684375 6.4534375 3.684375 8 4 C9.23184766 6.46369532 9.16732342 8.1894501 9.1875 10.9375 C9.20167969 11.81277344 9.21585937 12.68804687 9.23046875 13.58984375 C9 16 9 16 7 19 C2.25 18.125 2.25 18.125 0 17 C-0.66666667 15.33333333 -1.33333333 13.66666667 -2 12 C-2.66 11.67 -3.32 11.34 -4 11 C-4 10.01 -4 9.02 -4 8 C-4.66 7.67 -5.32 7.34 -6 7 C-4.02 4.69 -2.04 2.38 0 0 Z " fill="#0968ED" transform="translate(267,220)"/>
<path d="M0 0 C0.74958984 0.00451172 1.49917969 0.00902344 2.27148438 0.01367188 C4.11852383 0.02543646 5.96552213 0.04337135 7.8125 0.0625 C8.1425 1.3825 8.4725 2.7025 8.8125 4.0625 C0.3975 4.5575 0.3975 4.5575 -8.1875 5.0625 C-7.8575 6.7125 -7.5275 8.3625 -7.1875 10.0625 C-6.42824219 10.12308594 -5.66898437 10.18367188 -4.88671875 10.24609375 C-3.89285156 10.32988281 -2.89898437 10.41367187 -1.875 10.5 C-0.88886719 10.58121094 0.09726562 10.66242188 1.11328125 10.74609375 C3.8125 11.0625 3.8125 11.0625 6.8125 12.0625 C6.4825 13.0525 6.1525 14.0425 5.8125 15.0625 C3.58261716 14.97499445 1.35353995 14.86680939 -0.875 14.75 C-2.11636719 14.69199219 -3.35773438 14.63398438 -4.63671875 14.57421875 C-8.30816714 14.04511013 -10.34486785 13.43136012 -13.1875 11.0625 C-13.85663403 8.26284321 -13.42618841 5.97449859 -13.1875 3.0625 C-12.5275 3.0625 -11.8675 3.0625 -11.1875 3.0625 C-11.1875 2.4025 -11.1875 1.7425 -11.1875 1.0625 C-7.42449626 -0.19183458 -3.91539091 -0.04445422 0 0 Z " fill="#0E56B9" transform="translate(294.1875,309.9375)"/>
<path d="M0 0 C7.83262767 4.93165446 15.44040197 10.44040197 22 17 C19.125 16.6875 19.125 16.6875 16 16 C15.34 15.01 14.68 14.02 14 13 C13.319375 12.835 12.63875 12.67 11.9375 12.5 C11.298125 12.335 10.65875 12.17 10 12 C9.67 11.01 9.34 10.02 9 9 C8.01 8.67 7.02 8.34 6 8 C6 7.34 6 6.68 6 6 C4.35 6 2.7 6 1 6 C1.33 7.98 1.66 9.96 2 12 C-1 14 -1 14 -2.75 13.8125 C-11.58536585 10.62195122 -11.58536585 10.62195122 -14 7 C-12.35 6.67 -10.7 6.34 -9 6 C-9 6.99 -9 7.98 -9 9 C-8.34 9 -7.68 9 -7 9 C-7 8.34 -7 7.68 -7 7 C-5.02 6.34 -3.04 5.68 -1 5 C-0.67 3.35 -0.34 1.7 0 0 Z " fill="#0965E2" transform="translate(253,207)"/>
<path d="M0 0 C3.54776157 0.1542505 5.53985342 0.66963835 8.4375 2.75 C10 5 10 5 9.75 7.75 C9.5025 8.4925 9.255 9.235 9 10 C7.02 10.66 5.04 11.32 3 12 C3 12.66 3 13.32 3 14 C2.34 14 1.68 14 1 14 C1 13.01 1 12.02 1 11 C0.01 11.33 -0.98 11.66 -2 12 C-1.67 10.35 -1.34 8.7 -1 7 C-1.99 6.67 -2.98 6.34 -4 6 C-2.84826645 3.53199953 -1.95216435 1.95216435 0 0 Z " fill="#0965E6" transform="translate(243,202)"/>
<path d="M0 0 C5.94 0 11.88 0 18 0 C18.33 1.32 18.66 2.64 19 4 C14.38 4 9.76 4 5 4 C5 6.97 5 9.94 5 13 C3.35 12.67 1.7 12.34 0 12 C0 8.04 0 4.08 0 0 Z " fill="#707278" transform="translate(240,321)"/>
<path d="M0 0 C1.32 0 2.64 0 4 0 C4 7.92 4 15.84 4 24 C2.35 24 0.7 24 -1 24 C-3 21 -3 21 -3 17 C-2.01 17 -1.02 17 0 17 C0 11.39 0 5.78 0 0 Z " fill="#6F7279" transform="translate(136,310)"/>
<path d="M0 0 C0.33 0 0.66 0 1 0 C1 5.28 1 10.56 1 16 C0.01 16 -0.98 16 -2 16 C-1.67 17.98 -1.34 19.96 -1 22 C-2.66666667 20.33333333 -4.33333333 18.66666667 -6 17 C-6.598125 16.443125 -7.19625 15.88625 -7.8125 15.3125 C-9 14 -9 14 -9 12 C-9.66 12 -10.32 12 -11 12 C-12.2890625 10.46875 -12.2890625 10.46875 -13.625 8.5 C-14.07101563 7.8503125 -14.51703125 7.200625 -14.9765625 6.53125 C-15.48316406 5.77328125 -15.48316406 5.77328125 -16 5 C-15.01 5 -14.02 5 -13 5 C-12.34 4.01 -11.68 3.02 -11 2 C-9.894019 3.24839499 -8.79029799 4.49879234 -7.6875 5.75 C-7.07261719 6.44609375 -6.45773438 7.1421875 -5.82421875 7.859375 C-4.13587428 9.84055866 -2.56179848 11.91760203 -1 14 C-0.67 9.38 -0.34 4.76 0 0 Z " fill="#4F5157" transform="translate(135,311)"/>
<path d="M0 0 C0.79728516 0.01804687 1.59457031 0.03609375 2.41601562 0.0546875 C4.38202449 0.10177753 6.34741494 0.17352101 8.3125 0.25 C8.3125 1.9 8.3125 3.55 8.3125 5.25 C0.3925 5.745 0.3925 5.745 -7.6875 6.25 C-8.0175 7.9 -8.3475 9.55 -8.6875 11.25 C-9.3475 11.25 -10.0075 11.25 -10.6875 11.25 C-12.00787591 5.00822298 -12.00787591 5.00822298 -10.75 2.03125 C-7.48594579 -0.78770591 -4.15699681 -0.17732882 0 0 Z " fill="#1051A7" transform="translate(376.6875,309.75)"/>
<path d="M0 0 C0.99 0.33 1.98 0.66 3 1 C3 14.53 3 28.06 3 42 C4.98 41.505 4.98 41.505 7 41 C7.66 43.31 8.32 45.62 9 48 C7.64791086 47.37224433 6.31836295 46.69580267 5 46 C4.30616211 45.6805542 3.61232422 45.3611084 2.89746094 45.03198242 C-0.24613242 41.66552237 0.39651971 37.73913544 0.390625 33.30078125 C0.37408875 32.35059616 0.35755249 31.40041107 0.34051514 30.4214325 C0.29191041 27.38505674 0.27063648 24.34918223 0.25 21.3125 C0.22185076 19.2545319 0.19192482 17.19658728 0.16015625 15.13867188 C0.08614803 10.09248916 0.0366496 5.04658676 0 0 Z " fill="#103F7D" transform="translate(193,167)"/>
<path d="M0 0 C0.99 0.66 1.98 1.32 3 2 C3.22107787 4.7885289 3.28107535 7.34653181 3.1875 10.125 C3.17396484 10.87910156 3.16042969 11.63320312 3.14648438 12.41015625 C3.11109985 14.27374127 3.05729167 16.13695978 3 18 C3.66 18 4.32 18 5 18 C5.33 19.65 5.66 21.3 6 23 C6.66 23 7.32 23 8 23 C7.67 23.99 7.34 24.98 7 26 C5.02 25.67 3.04 25.34 1 25 C1 24.34 1 23.68 1 23 C0.34 23 -0.32 23 -1 23 C-1.99 20.36 -2.98 17.72 -4 15 C-3.01 15 -2.02 15 -1 15 C0.09506492 11.71480525 0.09960608 9.26336585 0.0625 5.8125 C0.04896484 4.18248047 0.04896484 4.18248047 0.03515625 2.51953125 C0.02355469 1.68808594 0.01195312 0.85664063 0 0 Z " fill="#0E5AC2" transform="translate(275,224)"/>
<path d="M0 0 C1.2065625 0.0309375 1.2065625 0.0309375 2.4375 0.0625 C2.4375 3.62479451 1.67640991 4.47359679 -0.4375 7.25 C-0.97117187 7.96542969 -1.50484375 8.68085938 -2.0546875 9.41796875 C-2.55226563 9.96066406 -3.04984375 10.50335938 -3.5625 11.0625 C-4.2225 11.0625 -4.8825 11.0625 -5.5625 11.0625 C-5.81 11.701875 -6.0575 12.34125 -6.3125 13 C-7.5625 15.0625 -7.5625 15.0625 -9.6875 15.8125 C-10.615625 15.93625 -10.615625 15.93625 -11.5625 16.0625 C-12.2225 14.4125 -12.8825 12.7625 -13.5625 11.0625 C-12.758125 10.44375 -11.95375 9.825 -11.125 9.1875 C-8.52375481 7.32085959 -8.52375481 7.32085959 -7.5625 5.0625 C-6.9025 5.0625 -6.2425 5.0625 -5.5625 5.0625 C-5.253125 4.423125 -4.94375 3.78375 -4.625 3.125 C-3.05351796 0.07447605 -3.05351796 0.07447605 0 0 Z " fill="#114A98" transform="translate(343.5625,309.9375)"/>
<path d="M0 0 C2.4375 0.6875 2.4375 0.6875 5 2 C5.8125 4.625 5.8125 4.625 6 7 C5.34 7 4.68 7 4 7 C4 7.99 4 8.98 4 10 C5.32 10.33 6.64 10.66 8 11 C8.33 12.32 8.66 13.64 9 15 C9.66 15 10.32 15 11 15 C10.67 15.66 10.34 16.32 10 17 C7.03 14.69 4.06 12.38 1 10 C0.67 18.91 0.34 27.82 0 37 C-0.99 37.495 -0.99 37.495 -2 38 C-2.66 37.67 -3.32 37.34 -4 37 C-4 36.34 -4 35.68 -4 35 C-4.99 34.67 -5.98 34.34 -7 34 C-6.01 33.505 -6.01 33.505 -5 33 C-4.01 33.66 -3.02 34.32 -2 35 C-1.97494385 34.14768799 -1.9498877 33.29537598 -1.92407227 32.41723633 C-1.82864431 29.23955034 -1.72942876 26.06201106 -1.62768555 22.88452148 C-1.5845116 21.51217224 -1.54282499 20.13977533 -1.50268555 18.76733398 C-1.44455608 16.78877932 -1.3805429 14.8104003 -1.31640625 12.83203125 C-1.26141968 11.04889526 -1.26141968 11.04889526 -1.20532227 9.22973633 C-1.02441957 6.38412188 -0.62416208 3.77556977 0 1 C0 0.67 0 0.34 0 0 Z " fill="#0A6EEF" transform="translate(209,182)"/>
<path d="M0 0 C2.64 0 5.28 0 8 0 C8.33 2.31 8.66 4.62 9 7 C8.34 7 7.68 7 7 7 C7 7.99 7 8.98 7 10 C4.36 9.67 1.72 9.34 -1 9 C-1.125 2.25 -1.125 2.25 0 0 Z " fill="#0765EF" transform="translate(308,270)"/>
<path d="M0 0 C1 1 1 1 1.09765625 2.84765625 C1.04882812 5.92382812 1.04882812 5.92382812 1 9 C-1.31 9 -3.62 9 -6 9 C-6 8.01 -6 7.02 -6 6 C-7.32 6 -8.64 6 -10 6 C-9.49396008 3.83125748 -9.00016187 2.00032373 -8 0 C-4.69676014 -1.10107995 -3.29495231 -0.86709271 0 0 Z " fill="#0B75F9" transform="translate(186,150)"/>
<path d="M0 0 C0.33 1.32 0.66 2.64 1 4 C-5.11404596 5.85743168 -10.58518742 7.42765417 -17 7 C-17.33 5.35 -17.66 3.7 -18 2 C-12.9459238 1.12103023 -8.16826706 0.93853131 -3.0390625 1.0625 C-1.00482706 1.23319748 -1.00482706 1.23319748 0 0 Z " fill="#1551A8" transform="translate(382,327)"/>
<path d="M0 0 C2.875 -0.125 2.875 -0.125 6 0 C6.66 0.66 7.32 1.32 8 2 C7.625 4.625 7.625 4.625 7 7 C6.01 6.67 5.02 6.34 4 6 C4 8.64 4 11.28 4 14 C3.34 14 2.68 14 2 14 C2 13.01 2 12.02 2 11 C1.34 11 0.68 11 0 11 C0 7.37 0 3.74 0 0 Z " fill="#65676C" transform="translate(115,310)"/>
<path d="M0 0 C5.28 0 10.56 0 16 0 C16 0.33 16 0.66 16 1 C11.05 1.33 6.1 1.66 1 2 C1 2.66 1 3.32 1 4 C2.21236328 4.03867187 2.21236328 4.03867187 3.44921875 4.078125 C12.10982832 4.53779547 12.10982832 4.53779547 16.25 6.6875 C18 9 18 9 18.4375 12.125 C18 15 18 15 16 17 C16 14.69 16 12.38 16 10 C11.90679703 7.59451579 8.11170418 7.59312087 3.4609375 7.34375 C1 7 1 7 -1 5 C-0.67 3.35 -0.34 1.7 0 0 Z " fill="#0D3C7F" transform="translate(286,314)"/>
<path d="M0 0 C2.125 -0.4375 2.125 -0.4375 5 0 C7.57785239 1.98660184 9.45161469 4.13548717 11 7 C10.875 10.9375 10.875 10.9375 10 14 C8.62437146 12.71034824 7.29233607 11.37310707 6 10 C6 9.34 6 8.68 6 8 C5.34 8 4.68 8 4 8 C0 2.58823529 0 2.58823529 0 0 Z " fill="#4F5459" transform="translate(158,310)"/>
<path d="M0 0 C0.66 0 1.32 0 2 0 C1.73958333 2.01822917 1.47916667 4.03645833 1.21875 6.0546875 C0.9627515 8.00498344 0.9627515 8.00498344 1 10 C1.66 10 2.32 10 3 10 C3.33 8.68 3.66 7.36 4 6 C4 6.66 4 7.32 4 8 C7.96 8 11.92 8 16 8 C16 8.33 16 8.66 16 9 C12.37 9.66 8.74 10.32 5 11 C6.32 11.66 7.64 12.32 9 13 C6.08955064 14.23134396 4.89483537 13.96700717 1.8125 13 C-1 11 -1 11 -2 7.5625 C-2 4.22292898 -1.84072087 2.70694245 0 0 Z " fill="#0D408B" transform="translate(365,311)"/>
<path d="M0 0 C5.61 0 11.22 0 17 0 C17.66 1.65 18.32 3.3 19 5 C19.99 4.67 20.98 4.34 22 4 C21.67 5.65 21.34 7.3 21 9 C20.01 9.33 19.02 9.66 18 10 C17.67 9.34 17.34 8.68 17 8 C11.39 7.67 5.78 7.34 0 7 C0 6.67 0 6.34 0 6 C5.61 6 11.22 6 17 6 C16.67 4.68 16.34 3.36 16 2 C10.72 1.67 5.44 1.34 0 1 C0 0.67 0 0.34 0 0 Z " fill="#36383B" transform="translate(241,314)"/>
<path d="M0 0 C1.65 0 3.3 0 5 0 C5.33 0.99 5.66 1.98 6 3 C6.66 3 7.32 3 8 3 C10 6 10 6 9.625 8.1875 C9.41875 8.785625 9.2125 9.38375 9 10 C5.54537888 9.74410214 4.72618453 8.71373837 2.25 6.125 C0 3 0 3 0 0 Z " fill="#125BC6" transform="translate(321,310)"/>
<path d="M0 0 C1.32 0.66 2.64 1.32 4 2 C4 2.66 4 3.32 4 4 C4.66 4.185625 5.32 4.37125 6 4.5625 C11.85635204 7.36866869 16.53400674 12.34792369 21 17 C20.34 17.33 19.68 17.66 19 18 C19 17.34 19 16.68 19 16 C17.68 16 16.36 16 15 16 C14.67 15.01 14.34 14.02 14 13 C11.99983534 11.79117904 11.99983534 11.79117904 10 11 C10 10.34 10 9.68 10 9 C8.35 8.67 6.7 8.34 5 8 C5 7.01 5 6.02 5 5 C2.69 4.34 0.38 3.68 -2 3 C-1.34 2.67 -0.68 2.34 0 2 C0 1.34 0 0.68 0 0 Z " fill="#0F4EA3" transform="translate(220,181)"/>
<path d="M0 0 C3.72114571 2.31537955 6.61229661 4.28579473 9 8 C8.01 8 7.02 8 6 8 C5.67 8.66 5.34 9.32 5 10 C5.66 10 6.32 10 7 10 C7.33 11.32 7.66 12.64 8 14 C7.34 14 6.68 14 6 14 C6 13.34 6 12.68 6 12 C5.401875 11.7525 4.80375 11.505 4.1875 11.25 C1.71352479 9.83629988 0.56629745 8.34944617 -1 6 C-0.34 5.34 0.32 4.68 1 4 C0.6814823 1.89179203 0.6814823 1.89179203 0 0 Z " fill="#0B4DAF" transform="translate(296,257)"/>
<path d="M0 0 C0.66 0 1.32 0 2 0 C1.835 0.61875 1.67 1.2375 1.5 1.875 C0.92365356 3.96063386 0.92365356 3.96063386 1 6 C1.66 6.66 2.32 7.32 3 8 C2.625 10.625 2.625 10.625 2 13 C-0.64 11.35 -3.28 9.7 -6 8 C-3.75 3.5 -3.75 3.5 0 2 C0 1.34 0 0.68 0 0 Z " fill="#575A61" transform="translate(276,192)"/>
<path d="M0 0 C0.66 0.33 1.32 0.66 2 1 C2.48541424 8.40256709 2.48541424 8.40256709 0.375 11 C-2.73708849 12.31035305 -4.65548436 12.55741927 -8 12 C-11.05661905 9.26513033 -11.93974578 7.79836847 -12.25 3.6875 C-12.1675 2.800625 -12.085 1.91375 -12 1 C-11.67 1.99 -11.34 2.98 -11 4 C-10.34 4 -9.68 4 -9 4 C-9 5.65 -9 7.3 -9 9 C-6.36 9.33 -3.72 9.66 -1 10 C-1 9.01 -1 8.02 -1 7 C-0.34 7 0.32 7 1 7 C0.67 4.69 0.34 2.38 0 0 Z " fill="#0E47A3" transform="translate(316,270)"/>
<path d="M0 0 C0.99 0.33 1.98 0.66 3 1 C1.66511872 4.59391114 0.03977277 7.75490696 -2 11 C-3.65 10.67 -5.3 10.34 -7 10 C-5.68 7.03 -4.36 4.06 -3 1 C-2.34 1.33 -1.68 1.66 -1 2 C-0.67 1.34 -0.34 0.68 0 0 Z " fill="#4E5155" transform="translate(201,323)"/>
<path d="M0 0 C0.99 0.33 1.98 0.66 3 1 C2.67 1.66 2.34 2.32 2 3 C1.84588894 5.0307477 1.75017547 7.06606421 1.68359375 9.1015625 C1.64169922 10.31328125 1.59980469 11.525 1.55664062 12.7734375 C1.51732422 14.04445312 1.47800781 15.31546875 1.4375 16.625 C1.37272461 18.543125 1.37272461 18.543125 1.30664062 20.5 C1.20030114 23.66655348 1.09827167 26.83318753 1 30 C0.34 30.33 -0.32 30.66 -1 31 C-1.66 30.67 -2.32 30.34 -3 30 C-3 29.34 -3 28.68 -3 28 C-3.99 27.67 -4.98 27.34 -6 27 C-5.34 26.67 -4.68 26.34 -4 26 C-3.01 26.66 -2.02 27.32 -1 28 C-0.67 18.76 -0.34 9.52 0 0 Z " fill="#205BA8" transform="translate(208,189)"/>
<path d="M0 0 C0.33 0 0.66 0 1 0 C1.33 1.65 1.66 3.3 2 5 C2.99 4.67 3.98 4.34 5 4 C5 6.97 5 9.94 5 13 C3.35 12.67 1.7 12.34 0 12 C0 8.04 0 4.08 0 0 Z " fill="#5D5F64" transform="translate(240,321)"/>
<path d="M0 0 C0.33 0 0.66 0 1 0 C1 1.98 1 3.96 1 6 C1.5775 6.2475 2.155 6.495 2.75 6.75 C5.3002997 8.16683317 7.01785701 9.87627537 9 12 C7.68 12 6.36 12 5 12 C4.67 13.32 4.34 14.64 4 16 C2.02 14.35 0.04 12.7 -2 11 C-0.68 10.67 0.64 10.34 2 10 C2 9.34 2 8.68 2 8 C1.34 7.67 0.68 7.34 0 7 C0 4.69 0 2.38 0 0 Z " fill="#1355A2" transform="translate(188,151)"/>
<path d="M0 0 C1.32 0 2.64 0 4 0 C4 7.92 4 15.84 4 24 C2.35 24 0.7 24 -1 24 C-0.34 22.35 0.32 20.7 1 19 C1.66 19 2.32 19 3 19 C3 13.06 3 7.12 3 1 C2.01 0.67 1.02 0.34 0 0 Z " fill="#5E6065" transform="translate(136,310)"/>
<path d="M0 0 C0.33 1.65 0.66 3.3 1 5 C0.67 4.01 0.34 3.02 0 2 C-0.99 2.495 -0.99 2.495 -2 3 C-3.87862875 2.91255632 -5.75455181 2.75824458 -7.625 2.5625 C-8.62789063 2.46066406 -9.63078125 2.35882813 -10.6640625 2.25390625 C-11.43492187 2.17011719 -12.20578125 2.08632813 -13 2 C-12.67 1.34 -12.34 0.68 -12 0 C-7.8265198 -1.35024359 -4.26066408 -0.7518819 0 0 Z " fill="#1161D9" transform="translate(382,321)"/>
<path d="M0 0 C-0.61454696 3.99455527 -2.70646737 6.74466336 -5 10 C-5.28875 9.360625 -5.5775 8.72125 -5.875 8.0625 C-6.82823451 5.84793921 -6.82823451 5.84793921 -9 5 C-4.5 0 -4.5 0 0 0 Z " fill="#5A5E65" transform="translate(183,310)"/>
<path d="M0 0 C3.99092412 2.28793238 7.65880191 4.90394143 11.3125 7.6875 C11.86228516 8.10322266 12.41207031 8.51894531 12.97851562 8.94726562 C14.32067925 9.96264158 15.66057622 10.98101253 17 12 C15.125 12.6171875 15.125 12.6171875 13 13 C11.62437146 11.71034824 10.29233607 10.37310707 9 9 C7.66893378 8.65772583 6.33599921 8.32248257 5 8 C4.67 7.01 4.34 6.02 4 5 C3.01 4.67 2.02 4.34 1 4 C0.3125 1.9375 0.3125 1.9375 0 0 Z " fill="#0F489A" transform="translate(258,211)"/>
<path d="M0 0 C0.33 0.66 0.66 1.32 1 2 C3.02463255 2.65213292 3.02463255 2.65213292 5 3 C5 5.31 5 7.62 5 10 C3.35 9.67 1.7 9.34 0 9 C0 6.03 0 3.06 0 0 Z " fill="#54555A" transform="translate(168,324)"/>
<path d="M0 0 C5.28 0 10.56 0 16 0 C15.01 1.485 15.01 1.485 14 3 C10.7421875 3.29296875 10.7421875 3.29296875 6.875 3.1875 C4.95300781 3.14689453 4.95300781 3.14689453 2.9921875 3.10546875 C2.00476563 3.07066406 1.01734375 3.03585937 0 3 C0 2.01 0 1.02 0 0 Z " fill="#72757B" transform="translate(240,311)"/>
<path d="M0 0 C3.94139078 1.66751148 6.7892812 4.22710649 10 7 C7.50907189 8.24546405 6.58919267 7.7767578 4 7 C3.67 7.99 3.34 8.98 3 10 C1.35 8.35 -0.3 6.7 -2 5 C-0.68 5 0.64 5 2 5 C2.33 4.34 2.66 3.68 3 3 C2.34 3 1.68 3 1 3 C0.67 2.01 0.34 1.02 0 0 Z " fill="#0C4598" transform="translate(280,244)"/>
<path d="M0 0 C10.55808656 -0.3690205 10.55808656 -0.3690205 15 2 C15 2.33 15 2.66 15 3 C10.05 3 5.1 3 0 3 C0 2.01 0 1.02 0 0 Z " fill="#1860CE" transform="translate(282,329)"/>
<path d="M0 0 C0.33 1.32 0.66 2.64 1 4 C-2.61973402 5.31626692 -5.09567131 6 -9 6 C-9 5.34 -9 4.68 -9 4 C-9.66 3.67 -10.32 3.34 -11 3 C-11 2.34 -11 1.68 -11 1 C-10.28972656 1.01160156 -9.57945312 1.02320313 -8.84765625 1.03515625 C-7.92855469 1.04417969 -7.00945312 1.05320312 -6.0625 1.0625 C-4.68771484 1.07990234 -4.68771484 1.07990234 -3.28515625 1.09765625 C-1.03406673 1.25949049 -1.03406673 1.25949049 0 0 Z " fill="#145AC5" transform="translate(382,327)"/>
<path d="M0 0 C-0.66 0.66 -1.32 1.32 -2 2 C-1.67 2.66 -1.34 3.32 -1 4 C-2.65 4 -4.3 4 -6 4 C-6 4.66 -6 5.32 -6 6 C-6.99 6 -7.98 6 -9 6 C-8.49396008 3.83125748 -8.00016187 2.00032373 -7 0 C-3.86650268 -1.04449911 -3.01031744 -0.93423645 0 0 Z " fill="#0C77EB" transform="translate(185,150)"/>
<path d="M0 0 C0.66 0 1.32 0 2 0 C2 0.66 2 1.32 2 2 C3.32 2.33 4.64 2.66 6 3 C5.67 4.65 5.34 6.3 5 8 C3.125 7.8125 3.125 7.8125 1 7 C-0.3125 4.5625 -0.3125 4.5625 -1 2 C-0.67 1.34 -0.34 0.68 0 0 Z " fill="#6C6F76" transform="translate(168,319)"/>
<path d="M0 0 C0.99 0 1.98 0 3 0 C3.33 0.99 3.66 1.98 4 3 C1.6875 5.0625 1.6875 5.0625 -1 7 C-1.99 6.67 -2.98 6.34 -4 6 C-2.84826645 3.53199953 -1.95216435 1.95216435 0 0 Z " fill="#096CF5" transform="translate(243,202)"/>
<path d="M0 0 C1.32 0 2.64 0 4 0 C4 1.98 4 3.96 4 6 C2.68 6.33 1.36 6.66 0 7 C-0.66 5.35 -1.32 3.7 -2 2 C-1.34 1.34 -0.68 0.68 0 0 Z " fill="#0F61D8" transform="translate(332,319)"/>
<path d="M0 0 C0.66 0 1.32 0 2 0 C2 0.66 2 1.32 2 2 C2.66 2 3.32 2 4 2 C4 1.34 4 0.68 4 0 C4.99 0.33 5.98 0.66 7 1 C7.33 2.65 7.66 4.3 8 6 C5.6875 5.8125 5.6875 5.8125 3 5 C1.1875 2.4375 1.1875 2.4375 0 0 Z " fill="#4C4E53" transform="translate(214,328)"/>
<path d="M0 0 C1.9375 0.625 1.9375 0.625 4 2 C4.75 5.125 4.75 5.125 5 8 C2.5625 7.3125 2.5625 7.3125 0 6 C-0.875 3.4375 -0.875 3.4375 -1 1 C-0.67 0.67 -0.34 0.34 0 0 Z " fill="#676970" transform="translate(211,316)"/>
<path d="M0 0 C5.28 0 10.56 0 16 0 C16 0.99 16 1.98 16 3 C13.03 3 10.06 3 7 3 C7 2.67 7 2.34 7 2 C4.69 1.67 2.38 1.34 0 1 C0 0.67 0 0.34 0 0 Z " fill="#1C60BB" transform="translate(287,311)"/>
<path d="M0 0 C2.31 0.66 4.62 1.32 7 2 C7 2.99 7 3.98 7 5 C6.01 4.67 5.02 4.34 4 4 C3.67 4.66 3.34 5.32 3 6 C1.5 4.6875 1.5 4.6875 0 3 C0 2.01 0 1.02 0 0 Z " fill="#136AD6" transform="translate(192,162)"/>
<path d="M0 0 C0.66 0 1.32 0 2 0 C2 0.66 2 1.32 2 2 C2.66 2.33 3.32 2.66 4 3 C3.01 3.33 2.02 3.66 1 4 C1 4.66 1 5.32 1 6 C0.34 6 -0.32 6 -1 6 C-1 6.66 -1 7.32 -1 8 C-1.66 8 -2.32 8 -3 8 C-2.45276317 4.62537285 -1.9451 2.91765 0 0 Z " fill="#585A60" transform="translate(212,252)"/>
<path d="M0 0 C1.65 0 3.3 0 5 0 C5 0.99 5 1.98 5 3 C4.34 2.67 3.68 2.34 3 2 C3.66 3.98 4.32 5.96 5 8 C2.5 5.6875 2.5 5.6875 0 3 C0 2.01 0 1.02 0 0 Z " fill="#164588" transform="translate(321,310)"/>
<path d="M0 0 C0.7734375 0.433125 0.7734375 0.433125 1.5625 0.875 C4.62356725 2.28780027 7.74944918 3.1248517 11 4 C11 4.33 11 4.66 11 5 C5.62694301 5.44041451 5.62694301 5.44041451 3 5 C1 2.5 1 2.5 0 0 Z " fill="#11449C" transform="translate(305,265)"/>
<path d="M0 0 C-0.33 1.65 -0.66 3.3 -1 5 C-2.65 4.67 -4.3 4.34 -6 4 C-5.67 3.01 -5.34 2.02 -5 1 C-3 0 -3 0 0 0 Z " fill="#595B5E" transform="translate(200,329)"/>
<path d="M0 0 C1.65 0 3.3 0 5 0 C5.33 0.66 5.66 1.32 6 2 C5.01 3.32 4.02 4.64 3 6 C0 2.25 0 2.25 0 0 Z " fill="#4D4F54" transform="translate(158,310)"/>
<path d="M0 0 C0 0.99 0 1.98 0 3 C-4.22857143 7 -4.22857143 7 -8 7 C-8 6.34 -8 5.68 -8 5 C-2.52380952 0 -2.52380952 0 0 0 Z " fill="#505055" transform="translate(306,168)"/>
<path d="M0 0 C1.32 0 2.64 0 4 0 C3.625 2.9375 3.625 2.9375 3 6 C2.01 6.495 2.01 6.495 1 7 C0.34 5.02 -0.32 3.04 -1 1 C-0.67 0.67 -0.34 0.34 0 0 Z " fill="#114AA9" transform="translate(335,317)"/>
<path d="M0 0 C0.66 0 1.32 0 2 0 C2 2.64 2 5.28 2 8 C1.34 8 0.68 8 0 8 C-0.38063221 5.6739143 -0.71269945 3.33944736 -1 1 C-0.67 0.67 -0.34 0.34 0 0 Z " fill="#0B65E2" transform="translate(366,313)"/>
<path d="M0 0 C0.66 0 1.32 0 2 0 C1.73958333 2.01822917 1.47916667 4.03645833 1.21875 6.0546875 C0.9627515 8.00498344 0.9627515 8.00498344 1 10 C0.01 9.67 -0.98 9.34 -2 9 C-1.125 1.125 -1.125 1.125 0 0 Z " fill="#154A96" transform="translate(365,311)"/>
<path d="M0 0 C2.16874252 0.50603992 3.99967627 0.99983813 6 2 C6 3.32 6 4.64 6 6 C3.37812506 4.95125002 2.20628639 4.35068687 0.75 1.875 C0.5025 1.25625 0.255 0.6375 0 0 Z " fill="#5A5E6A" transform="translate(296,243)"/>
<path d="M0 0 C2.97 0.495 2.97 0.495 6 1 C6.33 2.32 6.66 3.64 7 5 C7.66 5 8.32 5 9 5 C8.67 5.66 8.34 6.32 8 7 C6.66382648 6.02471263 5.3311249 5.04466681 4 4.0625 C3.2575 3.51722656 2.515 2.97195312 1.75 2.41015625 C1.1725 1.94480469 0.595 1.47945312 0 1 C0 0.67 0 0.34 0 0 Z " fill="#1050A7" transform="translate(211,192)"/>
<path d="M0 0 C2.25 0.125 2.25 0.125 5 1 C7.3125 4.0625 7.3125 4.0625 9 7 C5.18315774 5.44499019 2.80804268 2.96404505 0 0 Z " fill="#0A4697" transform="translate(220,199)"/>
<path d="M0 0 C0 1.98 0 3.96 0 6 C-1.65 6 -3.3 6 -5 6 C-2.84615385 0 -2.84615385 0 0 0 Z " fill="#505358" transform="translate(140,328)"/>
<path d="M0 0 C0.66 1.32 1.32 2.64 2 4 C1.34 4.66 0.68 5.32 0 6 C-0.33 6.99 -0.66 7.98 -1 9 C-1.12375 8.360625 -1.2475 7.72125 -1.375 7.0625 C-1.684375 6.0415625 -1.684375 6.0415625 -2 5 C-2.66 4.67 -3.32 4.34 -4 4 C-2.68 2.68 -1.36 1.36 0 0 Z " fill="#44464D" transform="translate(211,312)"/>
<path d="M0 0 C0.66 1.98 1.32 3.96 2 6 C-1.65316671 4.75023244 -2.78065836 4.32901247 -5 1 C-2 0 -2 0 0 0 Z " fill="#094AA4" transform="translate(244,213)"/>
<path d="M0 0 C1.74627478 2.61941217 2.38722388 4.03824877 3 7 C1.0625 6.25 1.0625 6.25 -1 5 C-1.75 2.875 -1.75 2.875 -2 1 C-1.34 0.67 -0.68 0.34 0 0 Z " fill="#0C52AA" transform="translate(199,208)"/>
<path d="M0 0 C2.64 1.65 5.28 3.3 8 5 C7.67 5.66 7.34 6.32 7 7 C5.02 6.34 3.04 5.68 1 5 C0.67 3.35 0.34 1.7 0 0 Z " fill="#114B9D" transform="translate(211,174)"/>
<path d="M0 0 C2.0625 0.4375 2.0625 0.4375 4 1 C3.67 1.99 3.34 2.98 3 4 C2.34 4 1.68 4 1 4 C0.67 4.99 0.34 5.98 0 7 C-0.38133299 5.0085944 -0.71325582 3.00720923 -1 1 C-0.67 0.67 -0.34 0.34 0 0 Z " fill="#6A6D74" transform="translate(200,321)"/>
<path d="M0 0 C3 1 3 1 4 2 C4.04063832 3.66617115 4.042721 5.33388095 4 7 C3.34 7 2.68 7 2 7 C2 6.01 2 5.02 2 4 C1.34 4 0.68 4 0 4 C0 2.68 0 1.36 0 0 Z " fill="#77797F" transform="translate(115,317)"/>
<path d="M0 0 C2.475 0.99 2.475 0.99 5 2 C3.68 3.65 2.36 5.3 1 7 C0.87625 6.360625 0.7525 5.72125 0.625 5.0625 C0.315625 4.0415625 0.315625 4.0415625 0 3 C-0.66 2.67 -1.32 2.34 -2 2 C-1.34 1.34 -0.68 0.68 0 0 Z " fill="#424348" transform="translate(176,313)"/>
<path d="M0 0 C0.99 0.33 1.98 0.66 3 1 C3 2.32 3 3.64 3 5 C1.68 5 0.36 5 -1 5 C-0.67 3.35 -0.34 1.7 0 0 Z " fill="#616468" transform="translate(163,312)"/>
<path d="M0 0 C5.875 3.75 5.875 3.75 7 6 C6.01 6.33 5.02 6.66 4 7 C0 2.25 0 2.25 0 0 Z " fill="#0E3E8C" transform="translate(296,257)"/>
</svg>
